<svg width="32" height="28" viewBox="0 0 32 28" fill="none" xmlns="http://www.w3.org/2000/svg">
<path d="M3.36815 19.9964C3.87923 19.9964 4.34417 20.1235 4.76297 20.3777C5.18177 20.6283 5.51006 20.9761 5.74785 21.4209C5.98565 21.8621 6.10454 22.3528 6.10454 22.8929C6.10454 23.433 5.98565 23.9255 5.74785 24.3703C5.51006 24.8116 5.18177 25.1593 4.76297 25.4134C4.34417 25.6641 3.87923 25.7894 3.36815 25.7894C2.96355 25.7894 2.59444 25.7082 2.26082 25.5458C1.9272 25.3834 1.64327 25.1522 1.40903 24.8522V27.7169H0.18457V20.1288H1.40903V20.9284C1.63972 20.6319 1.92188 20.4024 2.2555 20.24C2.59266 20.0776 2.96355 19.9964 3.36815 19.9964ZM1.89881 24.1214C2.22888 24.4497 2.6388 24.6139 3.12859 24.6139C3.61837 24.6139 4.02652 24.4497 4.35304 24.1214C4.67956 23.7896 4.84282 23.3801 4.84282 22.8929C4.84282 22.4058 4.67956 21.9963 4.35304 21.6644C4.02652 21.3326 3.61837 21.1667 3.12859 21.1667C2.6388 21.1667 2.22888 21.3326 1.89881 21.6644C1.57229 21.9963 1.40903 22.4058 1.40903 22.8929C1.40903 23.3801 1.57229 23.7896 1.89881 24.1214Z" fill="#1C1C1C"/>
<path d="M11.6039 20.1288H12.8284V25.657H11.6039V24.8627C11.1142 25.4805 10.4647 25.7894 9.65546 25.7894C9.14084 25.7894 8.67412 25.6641 8.25532 25.4134C7.83652 25.1593 7.50823 24.8116 7.27044 24.3703C7.03619 23.929 6.91907 23.4366 6.91907 22.8929C6.91907 22.3493 7.03619 21.8568 7.27044 21.4156C7.50823 20.9743 7.83652 20.6283 8.25532 20.3777C8.67412 20.1235 9.14084 19.9964 9.65546 19.9964C10.4682 19.9964 11.1177 20.3036 11.6039 20.9178V20.1288ZM9.89503 24.6139C10.3848 24.6139 10.7912 24.4497 11.1142 24.1214C11.4407 23.7896 11.6039 23.3801 11.6039 22.8929C11.6039 22.4022 11.4407 21.9927 11.1142 21.6644C10.7912 21.3326 10.3848 21.1667 9.89503 21.1667C9.4017 21.1667 8.99 21.3326 8.65993 21.6644C8.33341 21.9927 8.17014 22.4022 8.17014 22.8929C8.17014 23.3801 8.33341 23.7896 8.65993 24.1214C8.99 24.4497 9.4017 24.6139 9.89503 24.6139Z" fill="#1C1C1C"/>
<path d="M17.6304 21.2302H16.0599V23.8461C16.0599 24.1002 16.1291 24.2926 16.2675 24.4232C16.4095 24.5503 16.61 24.6139 16.8691 24.6139C17.114 24.6139 17.3678 24.5503 17.6304 24.4232V25.5617C17.3287 25.7135 16.9898 25.7894 16.6136 25.7894C16.0279 25.7894 15.5861 25.6358 15.288 25.3287C14.9898 25.0216 14.8408 24.5927 14.8408 24.042V21.2302H13.8985V20.1288H14.8408V18.6938H16.0599V20.1288H17.6304V21.2302Z" fill="#1C1C1C"/>
<path d="M22.9115 20.1288H24.136V25.657H22.9115V24.8627C22.4217 25.4805 21.7722 25.7894 20.963 25.7894C20.4484 25.7894 19.9817 25.6641 19.5629 25.4134C19.1441 25.1593 18.8158 24.8116 18.578 24.3703C18.3438 23.929 18.2266 23.4366 18.2266 22.8929C18.2266 22.3493 18.3438 21.8568 18.578 21.4156C18.8158 20.9743 19.1441 20.6283 19.5629 20.3777C19.9817 20.1235 20.4484 19.9964 20.963 19.9964C21.7758 19.9964 22.4253 20.3036 22.9115 20.9178V20.1288ZM21.2026 24.6139C21.6924 24.6139 22.0988 24.4497 22.4217 24.1214C22.7483 23.7896 22.9115 23.3801 22.9115 22.8929C22.9115 22.4022 22.7483 21.9927 22.4217 21.6644C22.0988 21.3326 21.6924 21.1667 21.2026 21.1667C20.7093 21.1667 20.2976 21.3326 19.9675 21.6644C19.641 21.9927 19.4777 22.4022 19.4777 22.8929C19.4777 23.3801 19.641 23.7896 19.9675 24.1214C20.2976 24.4497 20.7093 24.6139 21.2026 24.6139Z" fill="#1C1C1C"/>
<path d="M29.9601 20.1288H31.1846V25.657H29.9601V24.8627C29.4703 25.4805 28.8208 25.7894 28.0116 25.7894C27.497 25.7894 27.0303 25.6641 26.6115 25.4134C26.1927 25.1593 25.8644 24.8116 25.6266 24.3703C25.3924 23.929 25.2752 23.4366 25.2752 22.8929C25.2752 22.3493 25.3924 21.8568 25.6266 21.4156C25.8644 20.9743 26.1927 20.6283 26.6115 20.3777C27.0303 20.1235 27.497 19.9964 28.0116 19.9964C28.8244 19.9964 29.4739 20.3036 29.9601 20.9178V20.1288ZM28.2512 24.6139C28.741 24.6139 29.1474 24.4497 29.4703 24.1214C29.7969 23.7896 29.9601 23.3801 29.9601 22.8929C29.9601 22.4022 29.7969 21.9927 29.4703 21.6644C29.1474 21.3326 28.741 21.1667 28.2512 21.1667C27.7579 21.1667 27.3462 21.3326 27.0161 21.6644C26.6896 21.9927 26.5263 22.4022 26.5263 22.8929C26.5263 23.3801 26.6896 23.7896 27.0161 24.1214C27.3462 24.4497 27.7579 24.6139 28.2512 24.6139Z" fill="#1C1C1C"/>
<path d="M27.4102 15.2097L15.7293 -3.33786e-06L12.7812 3.81916L21.5139 15.2097H27.4102Z" fill="#E39D02"/>
<path d="M4.02588 15.2098L15.7067 0.000113487L18.6548 3.81928L9.92213 15.2098H4.02588Z" fill="#FFC543"/>
</svg>
