<svg width="5" height="8" viewBox="0 0 5 8" fill="none" xmlns="http://www.w3.org/2000/svg">
<path d="M4.78385 3.56983C3.57349 2.4677 2.36362 1.36513 1.1557 0.261007C1.02435 0.140815 0.887893 0.0352593 0.700356 0C0.643195 0 0.586033 0 0.528872 0C0.496522 0.00953552 0.463928 0.019071 0.431577 0.0286066C0.229932 0.0878155 0.0939612 0.208894 0.0309624 0.392952C-0.0488199 0.626462 0.0302327 0.821164 0.214608 0.989033C1.29143 1.96986 2.36751 2.95135 3.44482 3.93174C3.46841 3.95303 3.50393 3.96345 3.53384 3.97897C3.49322 4.03109 3.46622 4.04661 3.44409 4.06679C2.64797 4.79171 1.85233 5.51708 1.0567 6.24244C0.774057 6.50012 0.491657 6.75847 0.208283 7.01548C0.0652591 7.14521 -0.0167124 7.29822 0.0034764 7.4845C0.02853 7.7149 0.162798 7.88011 0.399712 7.96083C0.651951 8.04665 0.878163 7.98833 1.06692 7.81647C2.31133 6.68285 3.55574 5.54923 4.79698 4.41273C4.86728 4.34842 4.92858 4.26482 4.96166 4.17988C5.05384 3.94438 4.97406 3.74302 4.78385 3.56983Z" fill="#181B21"/>
</svg>
