<svg width="32" height="29" viewBox="0 0 32 29" fill="none" xmlns="http://www.w3.org/2000/svg">
<path fill-rule="evenodd" clip-rule="evenodd" d="M11.9077 3.51692V0.0636321C11.3716 -0.0276671 10.6175 0.0293146 10.0534 0.0236163C7.93666 0.0122197 8.39455 1.31954 8.40012 4.6933L11.9077 3.51692Z" fill="#597AC1"/>
<path fill-rule="evenodd" clip-rule="evenodd" d="M8.39978 16.0836C8.99747 15.9696 9.7347 15.6612 10.3155 15.467C11.0137 15.233 11.913 15.1017 11.913 14.6964C11.913 12.5727 11.9911 6.88124 11.8961 5.15137C11.3544 5.27128 10.6395 5.54531 10.098 5.72791C9.77396 5.83643 9.50602 5.93912 9.1764 6.04194C8.53971 6.24176 8.46146 6.17896 8.40004 6.46438L8.39978 16.0836Z" fill="#597AC1"/>
<path fill-rule="evenodd" clip-rule="evenodd" d="M17.466 3.21497C17.4715 1.73645 17.4436 0.394821 17.3431 0.0239258H13.6402C13.5339 0.417867 13.5117 1.86207 13.5171 3.50052C14.0819 3.08645 14.752 2.84003 15.4505 2.78955C16.149 2.73906 16.8476 2.88655 17.466 3.2151V3.21497Z" fill="#FFCC4B"/>
<path fill-rule="evenodd" clip-rule="evenodd" d="M22.7527 6.24123C22.7805 5.03674 22.8919 2.23369 22.7415 1.16621C22.641 0.446961 22.155 0.0530158 21.3675 0.0243977C20.7419 0.00160459 19.5075 -0.0270123 18.9268 0.0644136L18.9324 4.60278C19.2576 5.12983 19.4529 5.7266 19.5022 6.34392C19.5265 6.64279 19.5171 6.94342 19.4744 7.2402L22.7527 6.24123Z" fill="#FFCC4B"/>
<path fill-rule="evenodd" clip-rule="evenodd" d="M13.5216 14.49C15.5379 13.942 17.5596 13.2512 19.5759 12.669C23.2399 11.6072 22.7652 12.0524 22.7543 7.8623L18.6883 9.08402L18.6211 9.16962C17.5321 10.4883 14.3597 10.8423 13.5164 10.9108L13.5216 14.49Z" fill="#FFCC4B"/>
<path fill-rule="evenodd" clip-rule="evenodd" d="M17.3764 4.66028C17.1208 4.43788 16.8231 4.2691 16.5011 4.16395C16.179 4.05881 15.8391 4.01944 15.5015 4.04818C15.1639 4.07693 14.8356 4.17321 14.5359 4.3313C14.2363 4.48939 13.9714 4.70608 13.7571 4.96849C12.8411 6.07599 13.221 9.67249 13.221 9.67249C13.221 9.67249 16.7565 9.46128 17.6724 8.35948C18.1149 7.82595 18.3316 7.1407 18.2764 6.44973C18.2211 5.75875 17.8981 5.11667 17.3764 4.66028ZM15.7064 5.19693C16.0012 5.18592 16.2925 5.26328 16.543 5.41906C16.7935 5.57484 16.9917 5.80194 17.1122 6.0712C17.2326 6.34045 17.2699 6.63957 17.2191 6.93014C17.1683 7.22071 17.0318 7.48947 16.8272 7.7019C16.6225 7.91434 16.3591 8.06075 16.0706 8.12235C15.7821 8.18394 15.4818 8.1579 15.2083 8.04757C14.9347 7.93723 14.7004 7.74765 14.5353 7.50315C14.3703 7.25866 14.2821 6.97042 14.2821 6.67545C14.2786 6.48483 14.3126 6.29538 14.3822 6.11791C14.4519 5.94044 14.5558 5.77843 14.688 5.64112C14.8203 5.50381 14.9783 5.39391 15.1531 5.31767C15.3278 5.24143 15.5158 5.20036 15.7064 5.1968V5.19693Z" fill="#5DA172"/>
<path d="M0 28.9999V21.5674H1.14554V22.4674C1.54917 21.7827 2.18066 21.4402 3.04002 21.4403C3.75207 21.4403 4.32847 21.6574 4.76923 22.0915C5.20999 22.5256 5.43036 23.1519 5.43036 23.9706C5.44036 24.4379 5.32864 24.9002 5.10536 25.3154C4.904 25.6882 4.59887 25.9997 4.22399 26.2155C3.84901 26.4282 3.42048 26.538 2.98508 26.5328C2.60369 26.542 2.22511 26.4679 1.8779 26.3159C1.5772 26.1811 1.32305 25.9662 1.1456 25.6967L1.15667 29.0002L0 28.9999ZM1.96608 22.6102C1.73464 22.7337 1.54385 22.9171 1.41535 23.1396C1.27559 23.3842 1.20535 23.66 1.21169 23.939V24.0131C1.20632 24.2954 1.27644 24.5742 1.41535 24.823C1.54224 25.0503 1.73063 25.2404 1.96064 25.3733C2.18676 25.5035 2.44579 25.5715 2.70939 25.5696C3.18678 25.5696 3.55395 25.4232 3.81088 25.1303C4.06781 24.8373 4.19631 24.4614 4.19639 24.0026C4.19639 23.5224 4.06973 23.1396 3.81639 22.8539C3.56305 22.5683 3.19399 22.4254 2.70921 22.4251C2.44895 22.4241 2.19285 22.4878 1.96584 22.6102H1.96608ZM24.5575 26.2207C24.1704 26.011 23.8504 25.7034 23.6322 25.3312C23.4009 24.9466 23.2852 24.4966 23.2851 23.9811C23.2851 23.4728 23.386 23.0281 23.588 22.6469C23.7803 22.2761 24.0808 21.9672 24.4528 21.7578C24.8272 21.5458 25.2679 21.4399 25.7747 21.4401C26.0574 21.438 26.3378 21.4884 26.6007 21.5883C26.8366 21.6751 27.0561 21.7984 27.2504 21.9536C27.402 22.0674 27.523 22.2144 27.6032 22.3824L27.625 21.5671H28.7598V26.4267H27.636L27.6143 25.5692C27.4892 25.823 27.2616 26.0471 26.9313 26.2414C26.5962 26.4368 26.2106 26.5377 25.8187 26.5325C25.3771 26.5361 24.9422 26.4286 24.5573 26.2207H24.5575ZM24.9265 22.8541C24.6693 23.1469 24.5408 23.5262 24.5409 23.992C24.5409 24.4651 24.6676 24.8481 24.921 25.1408C25.1743 25.4336 25.5397 25.5801 26.017 25.5802C26.2137 25.5843 26.4092 25.5491 26.5911 25.4772C26.7731 25.4052 26.9376 25.298 27.0744 25.1621C27.3607 24.8833 27.5039 24.518 27.5039 24.0662V23.9921C27.5089 23.7088 27.4408 23.4288 27.3058 23.1769C27.1825 22.9461 26.9958 22.7521 26.7661 22.6158C26.5412 22.4824 26.2817 22.4125 26.0173 22.4143C25.5469 22.4141 25.1832 22.5607 24.9262 22.8538L24.9265 22.8541ZM17.8934 26.2207C17.5063 26.011 17.1863 25.7034 16.9681 25.3312C16.7368 24.9466 16.6213 24.4966 16.6216 23.9811C16.6216 23.4728 16.7226 23.0281 16.9245 22.6469C17.1166 22.2761 17.417 21.9671 17.7889 21.7578C18.1637 21.5458 18.6044 21.4399 19.1108 21.4401C19.3935 21.438 19.674 21.4883 19.9369 21.5883C20.1729 21.6751 20.3925 21.7985 20.5869 21.9536C20.7383 22.0675 20.8591 22.2145 20.9393 22.3824L20.9614 21.5671H22.0959V26.4267H20.9725L20.9504 25.5692C20.8256 25.823 20.598 26.0471 20.2674 26.2414C19.9324 26.4368 19.547 26.5377 19.1551 26.5325C18.7134 26.5361 18.2783 26.4287 17.8932 26.2207H17.8934ZM18.2624 22.8541C18.0056 23.1469 17.8771 23.5262 17.8769 23.992C17.8769 24.4651 18.0035 24.8481 18.2569 25.1408C18.5102 25.4336 18.8756 25.5801 19.353 25.5802C19.5497 25.5843 19.7451 25.5492 19.9271 25.4773C20.109 25.4053 20.2735 25.298 20.4103 25.1621C20.6966 24.8833 20.8398 24.518 20.8398 24.0662V23.9921C20.8448 23.7088 20.7768 23.4288 20.6418 23.1769C20.5185 22.946 20.3319 22.752 20.102 22.6158C19.8771 22.4824 19.6176 22.4125 19.3533 22.4143C18.8829 22.4141 18.5191 22.5607 18.2621 22.8538L18.2624 22.8541ZM7.56173 26.2207C7.17458 26.011 6.85458 25.7034 6.63643 25.3312C6.40512 24.9466 6.2894 24.4966 6.28927 23.9811C6.28927 23.4728 6.39024 23.0281 6.59218 22.6469C6.7845 22.2761 7.08498 21.9672 7.45696 21.7578C7.83142 21.5458 8.27206 21.4399 8.77886 21.4401C9.06156 21.438 9.34203 21.4884 9.60492 21.5883C9.84082 21.6751 10.0603 21.7985 10.2547 21.9536C10.4061 22.0675 10.527 22.2145 10.6074 22.3824L10.6292 21.5671H11.7636V26.4267H10.6402L10.6181 25.5692C10.4934 25.823 10.2657 26.0471 9.93517 26.2414C9.6002 26.4369 9.21471 26.5378 8.82286 26.5325C8.38129 26.5361 7.94643 26.4287 7.56149 26.2207H7.56173ZM7.93066 22.8541C7.67352 23.1469 7.54502 23.5262 7.54514 23.992C7.54514 24.4651 7.67182 24.8481 7.92516 25.1408C8.1785 25.4336 8.54374 25.5801 9.02089 25.5802C9.21764 25.5843 9.41315 25.5492 9.59516 25.4773C9.77717 25.4053 9.94177 25.298 10.0786 25.1621C10.3649 24.8833 10.5081 24.518 10.5081 24.0662V23.9921C10.5131 23.7088 10.445 23.4288 10.3101 23.1769C10.1867 22.9461 10 22.7521 9.77026 22.6158C9.54514 22.4823 9.28544 22.4124 9.02095 22.4143C8.55106 22.4141 8.18755 22.5607 7.93042 22.8538L7.93066 22.8541ZM13.6912 26.4272V22.4994H12.7991V21.5674H13.6912V19.5876L14.8917 19.3335V21.5674H16.0594V22.4994H14.8917V26.427L13.6912 26.4272ZM29.4983 20.928C29.4985 20.7177 29.5855 20.5162 29.7401 20.3675C29.8948 20.2187 30.1045 20.135 30.3232 20.1348C30.542 20.1351 30.7517 20.2187 30.9063 20.3675C31.061 20.5162 31.1479 20.7177 31.1481 20.928C31.1479 21.1382 31.0609 21.3399 30.9063 21.4885C30.7516 21.6372 30.5419 21.7208 30.3232 21.721C30.1044 21.7208 29.8946 21.6373 29.7399 21.4885C29.5852 21.3398 29.4982 21.1381 29.498 20.9278L29.4983 20.928ZM29.5953 20.928C29.5953 21.0199 29.6141 21.1109 29.6506 21.1958C29.6872 21.2807 29.7408 21.3579 29.8084 21.4229C29.876 21.4879 29.9563 21.5393 30.0446 21.5745C30.1329 21.6097 30.2276 21.6277 30.3232 21.6277C30.4188 21.6277 30.5135 21.6097 30.6018 21.5745C30.6901 21.5393 30.7704 21.4879 30.838 21.4229C30.9056 21.3579 30.9592 21.2807 30.9958 21.1958C31.0324 21.1109 31.0512 21.0199 31.0511 20.928C31.0511 20.8361 31.0323 20.7451 30.9957 20.6602C30.9592 20.5753 30.9056 20.4982 30.838 20.4332C30.7704 20.3682 30.6901 20.3167 30.6018 20.2816C30.5135 20.2464 30.4188 20.2284 30.3232 20.2284C30.2276 20.2283 30.133 20.2464 30.0446 20.2815C29.9563 20.3166 29.876 20.3681 29.8084 20.4331C29.7408 20.498 29.6871 20.5751 29.6505 20.66C29.6139 20.7449 29.5951 20.8359 29.5951 20.9278L29.5953 20.928ZM30.5549 21.3478L30.3431 20.9986H30.1609V21.3478H30.0594V20.5078H30.2988C30.3827 20.5016 30.4664 20.5225 30.5365 20.5673C30.5629 20.5891 30.5836 20.6165 30.597 20.6474C30.6104 20.6783 30.6161 20.7119 30.6136 20.7453C30.6157 20.7966 30.5993 20.8471 30.5672 20.8881C30.5352 20.9292 30.4894 20.9584 30.4376 20.9709L30.6752 21.3481L30.5549 21.3478ZM30.1609 20.9149H30.3004C30.3564 20.9192 30.4122 20.9048 30.4583 20.8739C30.4757 20.8582 30.4892 20.839 30.4979 20.8176C30.5066 20.7963 30.5102 20.7733 30.5085 20.7505C30.5106 20.728 30.5071 20.7053 30.4981 20.6844C30.4892 20.6635 30.4751 20.6448 30.4572 20.6302C30.4078 20.6019 30.3504 20.589 30.293 20.5934H30.161L30.1609 20.9149Z" fill="#181B21"/>
</svg>
